<svg xmlns="http://www.w3.org/2000/svg" width="1080" height="620" viewBox="0 0 1080 620"><rect width="100%" height="100%" fill="#ffffff"/><text x="86" y="30" font-family="Inter,Segoe UI,Arial" font-size="21" font-weight="700" fill="#1f2937">Duracion del video vs palabras de transcripcion</text><text x="86" y="53" font-family="Inter,Segoe UI,Arial" font-size="13" fill="#64748b">8 videos. Correlacion r=0,99.</text><line x1="86" x2="910" y1="528" y2="528" stroke="#e5e7eb"/><text x="76" y="532" font-family="Inter,Segoe UI,Arial" font-size="11" text-anchor="end" fill="#64748b">927</text><line x1="86" x2="910" y1="413.5" y2="413.5" stroke="#e5e7eb"/><text x="76" y="417.5" font-family="Inter,Segoe UI,Arial" font-size="11" text-anchor="end" fill="#64748b">3033</text><line x1="86" x2="910" y1="299" y2="299" stroke="#e5e7eb"/><text x="76" y="303" font-family="Inter,Segoe UI,Arial" font-size="11" text-anchor="end" fill="#64748b">5138</text><line x1="86" x2="910" y1="184.5" y2="184.5" stroke="#e5e7eb"/><text x="76" y="188.5" font-family="Inter,Segoe UI,Arial" font-size="11" text-anchor="end" fill="#64748b">7244</text><line x1="86" x2="910" y1="70" y2="70" stroke="#e5e7eb"/><text x="76" y="74" font-family="Inter,Segoe UI,Arial" font-size="11" text-anchor="end" fill="#64748b">9349</text><line x1="86" x2="86" y1="70" y2="528" stroke="#f1f5f9"/><text x="86" y="552" font-family="Inter,Segoe UI,Arial" font-size="11" text-anchor="middle" fill="#64748b">5</text><line x1="292" x2="292" y1="70" y2="528" stroke="#f1f5f9"/><text x="292" y="552" font-family="Inter,Segoe UI,Arial" font-size="11" text-anchor="middle" fill="#64748b">16</text><line x1="498" x2="498" y1="70" y2="528" stroke="#f1f5f9"/><text x="498" y="552" font-family="Inter,Segoe UI,Arial" font-size="11" text-anchor="middle" fill="#64748b">27</text><line x1="704" x2="704" y1="70" y2="528" stroke="#f1f5f9"/><text x="704" y="552" font-family="Inter,Segoe UI,Arial" font-size="11" text-anchor="middle" fill="#64748b">37</text><line x1="910" x2="910" y1="70" y2="528" stroke="#f1f5f9"/><text x="910" y="552" font-family="Inter,Segoe UI,Arial" font-size="11" text-anchor="middle" fill="#64748b">48</text><line x1="86" x2="910" y1="528" y2="528" stroke="#94a3b8"/><line x1="86" x2="86" y1="70" y2="528" stroke="#94a3b8"/><line x1="86" y1="533.9753805252328" x2="910" y2="88.33358615217145" stroke="#475569" stroke-width="2" stroke-dasharray="7 6"/><circle cx="99.0306976744186" cy="519.7884113037284" r="7" fill="#a8dadc" stroke="#334155" stroke-width="0.9" opacity="0.94"/><text x="109.0306976744186" y="511.78841130372837" font-family="Inter,Segoe UI,Arial" font-size="10.5" fill="#1f2937">INMPwIkRvSc</text><circle cx="127.58325581395349" cy="510.76110187603894" r="7" fill="#a8dadc" stroke="#334155" stroke-width="0.9" opacity="0.94"/><text x="137.58325581395349" y="502.76110187603894" font-family="Inter,Segoe UI,Arial" font-size="10.5" fill="#1f2937">w-gkjp4UbPU</text><circle cx="178.3646511627907" cy="501.95131797672764" r="7" fill="#a8dadc" stroke="#334155" stroke-width="0.9" opacity="0.94"/><text x="188.3646511627907" y="493.95131797672764" font-family="Inter,Segoe UI,Arial" font-size="10.5" fill="#1f2937">gS3dvMzm89M</text><circle cx="181.4306976744186" cy="466.44027546900975" r="7" fill="#a8dadc" stroke="#334155" stroke-width="0.9" opacity="0.94"/><text x="191.4306976744186" y="458.44027546900975" font-family="Inter,Segoe UI,Arial" font-size="10.5" fill="#1f2937">cxsr69rkPLk</text><circle cx="517.7376744186047" cy="318.90358584659225" r="7" fill="#a8dadc" stroke="#334155" stroke-width="0.9" opacity="0.94"/><text x="527.7376744186047" y="310.90358584659225" font-family="Inter,Segoe UI,Arial" font-size="10.5" fill="#1f2937">wZGf0SdZCQo</text><circle cx="752.4818604651163" cy="194.20707670387083" r="7" fill="#a8dadc" stroke="#334155" stroke-width="0.9" opacity="0.94"/><text x="762.4818604651163" y="186.20707670387083" font-family="Inter,Segoe UI,Arial" font-size="10.5" fill="#1f2937">ByUz0W9UUEI</text><circle cx="762.0632558139536" cy="124.49014485870339" r="7" fill="#a8dadc" stroke="#334155" stroke-width="0.9" opacity="0.94"/><text x="772.0632558139536" y="116.49014485870339" font-family="Inter,Segoe UI,Arial" font-size="10.5" fill="#1f2937">N3AogqDP_kw</text><circle cx="830.4744186046512" cy="141.94656851104253" r="7" fill="#a8dadc" stroke="#334155" stroke-width="0.9" opacity="0.94"/><text x="840.4744186046512" y="133.94656851104253" font-family="Inter,Segoe UI,Arial" font-size="10.5" fill="#1f2937">t3aImWWIBaM</text><text x="498" y="592" font-family="Inter,Segoe UI,Arial" font-size="12" text-anchor="middle" fill="#64748b">duracion del video (min)</text><text x="22" y="299" transform="rotate(-90 22 299)" font-family="Inter,Segoe UI,Arial" font-size="12" text-anchor="middle" fill="#64748b">palabras de transcripcion</text><text x="938" y="78" font-family="Inter,Segoe UI,Arial" font-size="12" font-weight="700" fill="#1f2937">Leyenda</text><rect x="938" y="90" width="12" height="12" rx="3" fill="#a8dadc" stroke="#334155" stroke-width="0.5"/><text x="956" y="100" font-family="Inter,Segoe UI,Arial" font-size="11" fill="#1f2937">transcripcion</text></svg>