<svg xmlns="http://www.w3.org/2000/svg" width="1080" height="560" viewBox="0 0 1080 560"><rect width="100%" height="100%" fill="#ffffff"/><text x="82" y="30" font-family="Inter,Segoe UI,Arial" font-size="21" font-weight="700" fill="#1f2937">Media de tokens por palabra, por modelo</text><text x="82" y="53" font-family="Inter,Segoe UI,Arial" font-size="13" fill="#64748b">Compara estabilidad de entrada frente a variabilidad por salida generada.</text><line x1="82" x2="1050" y1="430" y2="430" stroke="#e5e7eb"/><text x="72" y="434" font-family="Inter,Segoe UI,Arial" font-size="11" text-anchor="end" fill="#64748b">0,0</text><line x1="82" x2="1050" y1="340" y2="340" stroke="#e5e7eb"/><text x="72" y="344" font-family="Inter,Segoe UI,Arial" font-size="11" text-anchor="end" fill="#64748b">1,8</text><line x1="82" x2="1050" y1="250" y2="250" stroke="#e5e7eb"/><text x="72" y="254" font-family="Inter,Segoe UI,Arial" font-size="11" text-anchor="end" fill="#64748b">3,5</text><line x1="82" x2="1050" y1="160" y2="160" stroke="#e5e7eb"/><text x="72" y="164" font-family="Inter,Segoe UI,Arial" font-size="11" text-anchor="end" fill="#64748b">5,3</text><line x1="82" x2="1050" y1="70" y2="70" stroke="#e5e7eb"/><text x="72" y="74" font-family="Inter,Segoe UI,Arial" font-size="11" text-anchor="end" fill="#64748b">7,0</text><rect x="174.33333333333334" y="301.9428571428571" width="42" height="128.05714285714288" rx="6" fill="#8ecae6" stroke="#334155" stroke-width="0.4"/><text x="195.33333333333334" y="295.9428571428571" font-family="Inter,Segoe UI,Arial" font-size="10" text-anchor="middle" fill="#1f2937">2,49</text><rect x="222.33333333333334" y="266.9714285714286" width="42" height="163.0285714285714" rx="6" fill="#ffb4a2" stroke="#334155" stroke-width="0.4"/><text x="243.33333333333334" y="260.9714285714286" font-family="Inter,Segoe UI,Arial" font-size="10" text-anchor="middle" fill="#1f2937">3,17</text><rect x="270.33333333333337" y="138.9142857142857" width="42" height="291.0857142857143" rx="6" fill="#cdb4db" stroke="#334155" stroke-width="0.4"/><text x="291.33333333333337" y="132.9142857142857" font-family="Inter,Segoe UI,Arial" font-size="10" text-anchor="middle" fill="#1f2937">5,66</text><text x="243.33333333333334" y="455" font-family="Inter,Segoe UI,Arial" font-size="11" text-anchor="middle" fill="#1f2937">kimi-k2.6</text><rect x="497" y="343.6" width="42" height="86.39999999999999" rx="6" fill="#8ecae6" stroke="#334155" stroke-width="0.4"/><text x="518" y="337.6" font-family="Inter,Segoe UI,Arial" font-size="10" text-anchor="middle" fill="#1f2937">1,68</text><rect x="545" y="360.57142857142856" width="42" height="69.42857142857143" rx="6" fill="#ffb4a2" stroke="#334155" stroke-width="0.4"/><text x="566" y="354.57142857142856" font-family="Inter,Segoe UI,Arial" font-size="10" text-anchor="middle" fill="#1f2937">1,35</text><rect x="593" y="274.6857142857143" width="42" height="155.31428571428572" rx="6" fill="#cdb4db" stroke="#334155" stroke-width="0.4"/><text x="614" y="268.6857142857143" font-family="Inter,Segoe UI,Arial" font-size="10" text-anchor="middle" fill="#1f2937">3,02</text><text x="566" y="455" font-family="Inter,Segoe UI,Arial" font-size="11" text-anchor="middle" fill="#1f2937">qwen3.5-397b-a17b</text><rect x="819.6666666666667" y="346.1714285714286" width="42" height="83.82857142857142" rx="6" fill="#8ecae6" stroke="#334155" stroke-width="0.4"/><text x="840.6666666666667" y="340.1714285714286" font-family="Inter,Segoe UI,Arial" font-size="10" text-anchor="middle" fill="#1f2937">1,63</text><rect x="867.6666666666667" y="384.74285714285713" width="42" height="45.25714285714286" rx="6" fill="#ffb4a2" stroke="#334155" stroke-width="0.4"/><text x="888.6666666666667" y="378.74285714285713" font-family="Inter,Segoe UI,Arial" font-size="10" text-anchor="middle" fill="#1f2937">0,88</text><rect x="915.6666666666667" y="300.9142857142857" width="42" height="129.0857142857143" rx="6" fill="#cdb4db" stroke="#334155" stroke-width="0.4"/><text x="936.6666666666667" y="294.9142857142857" font-family="Inter,Segoe UI,Arial" font-size="10" text-anchor="middle" fill="#1f2937">2,51</text><text x="888.6666666666667" y="455" font-family="Inter,Segoe UI,Arial" font-size="11" text-anchor="middle" fill="#1f2937">qwen3.6-27b</text><text x="22" y="250" transform="rotate(-90 22 250)" font-family="Inter,Segoe UI,Arial" font-size="12" text-anchor="middle" fill="#64748b">tokens / palabra de transcripcion</text><rect x="82" y="522" width="13" height="13" rx="3" fill="#8ecae6"/><text x="101" y="533" font-family="Inter,Segoe UI,Arial" font-size="12" fill="#1f2937">input tok/pal</text><rect x="302" y="522" width="13" height="13" rx="3" fill="#ffb4a2"/><text x="321" y="533" font-family="Inter,Segoe UI,Arial" font-size="12" fill="#1f2937">output tok/pal</text><rect x="522" y="522" width="13" height="13" rx="3" fill="#cdb4db"/><text x="541" y="533" font-family="Inter,Segoe UI,Arial" font-size="12" fill="#1f2937">total tok/pal</text></svg>