<svg xmlns="http://www.w3.org/2000/svg" width="1080" height="350" viewBox="0 0 1080 350"><rect width="100%" height="100%" fill="#ffffff"/><text x="36" y="30" font-family="Inter,Segoe UI,Arial" font-size="21" font-weight="700" fill="#1f2937">Heatmap input tokens / palabra</text><text x="36" y="54" font-family="Inter,Segoe UI,Arial" font-size="13" fill="#64748b">Promedios por modelo y video. Celdas vacias: sin ejecucion elegible.</text><text x="269" y="82" font-family="Inter,Segoe UI,Arial" font-size="11" text-anchor="middle" fill="#1f2937">ByUz0W9UUEI</text><text x="387" y="82" font-family="Inter,Segoe UI,Arial" font-size="11" text-anchor="middle" fill="#1f2937">cxsr69rkPLk</text><text x="505" y="82" font-family="Inter,Segoe UI,Arial" font-size="11" text-anchor="middle" fill="#1f2937">gS3dvMzm89M</text><text x="623" y="82" font-family="Inter,Segoe UI,Arial" font-size="11" text-anchor="middle" fill="#1f2937">INMPwIkRvSc</text><text x="741" y="82" font-family="Inter,Segoe UI,Arial" font-size="11" text-anchor="middle" fill="#1f2937">N3AogqDP_kw</text><text x="859" y="82" font-family="Inter,Segoe UI,Arial" font-size="11" text-anchor="middle" fill="#1f2937">t3aImWWIBaM</text><text x="977" y="82" font-family="Inter,Segoe UI,Arial" font-size="11" text-anchor="middle" fill="#1f2937">wZGf0SdZCQo</text><text x="196" y="129" font-family="Inter,Segoe UI,Arial" font-size="12" text-anchor="end" fill="#1f2937">kimi-k2.6</text><rect x="210" y="98" width="113" height="49" rx="8" fill="#f8fafc" stroke="#ffffff"/><text x="266.5" y="129" font-family="Inter,Segoe UI,Arial" font-size="12" text-anchor="middle" font-weight="700" fill="#1f2937">-</text><rect x="328" y="98" width="113" height="49" rx="8" fill="#f8fafc" stroke="#ffffff"/><text x="384.5" y="129" font-family="Inter,Segoe UI,Arial" font-size="12" text-anchor="middle" font-weight="700" fill="#1f2937">-</text><rect x="446" y="98" width="113" height="49" rx="8" fill="rgb(253,186,186)" stroke="#ffffff"/><text x="502.5" y="129" font-family="Inter,Segoe UI,Arial" font-size="12" text-anchor="middle" font-weight="700" fill="#1f2937">3,39</text><rect x="564" y="98" width="113" height="49" rx="8" fill="#f8fafc" stroke="#ffffff"/><text x="620.5" y="129" font-family="Inter,Segoe UI,Arial" font-size="12" text-anchor="middle" font-weight="700" fill="#1f2937">-</text><rect x="682" y="98" width="113" height="49" rx="8" fill="#f8fafc" stroke="#ffffff"/><text x="738.5" y="129" font-family="Inter,Segoe UI,Arial" font-size="12" text-anchor="middle" font-weight="700" fill="#1f2937">-</text><rect x="800" y="98" width="113" height="49" rx="8" fill="rgb(226,244,235)" stroke="#ffffff"/><text x="856.5" y="129" font-family="Inter,Segoe UI,Arial" font-size="12" text-anchor="middle" font-weight="700" fill="#1f2937">1,84</text><rect x="918" y="98" width="113" height="49" rx="8" fill="rgb(239,246,255)" stroke="#ffffff"/><text x="974.5" y="129" font-family="Inter,Segoe UI,Arial" font-size="12" text-anchor="middle" font-weight="700" fill="#1f2937">1,33</text><text x="196" y="183" font-family="Inter,Segoe UI,Arial" font-size="12" text-anchor="end" fill="#1f2937">qwen3.5-397b-a17b</text><rect x="210" y="152" width="113" height="49" rx="8" fill="rgb(233,245,245)" stroke="#ffffff"/><text x="266.5" y="183" font-family="Inter,Segoe UI,Arial" font-size="12" text-anchor="middle" font-weight="700" fill="#1f2937">1,58</text><rect x="328" y="152" width="113" height="49" rx="8" fill="rgb(234,245,247)" stroke="#ffffff"/><text x="384.5" y="183" font-family="Inter,Segoe UI,Arial" font-size="12" text-anchor="middle" font-weight="700" fill="#1f2937">1,54</text><rect x="446" y="152" width="113" height="49" rx="8" fill="rgb(238,240,221)" stroke="#ffffff"/><text x="502.5" y="183" font-family="Inter,Segoe UI,Arial" font-size="12" text-anchor="middle" font-weight="700" fill="#1f2937">2,36</text><rect x="564" y="152" width="113" height="49" rx="8" fill="#f8fafc" stroke="#ffffff"/><text x="620.5" y="183" font-family="Inter,Segoe UI,Arial" font-size="12" text-anchor="middle" font-weight="700" fill="#1f2937">-</text><rect x="682" y="152" width="113" height="49" rx="8" fill="rgb(231,245,243)" stroke="#ffffff"/><text x="738.5" y="183" font-family="Inter,Segoe UI,Arial" font-size="12" text-anchor="middle" font-weight="700" fill="#1f2937">1,65</text><rect x="800" y="152" width="113" height="49" rx="8" fill="rgb(234,245,247)" stroke="#ffffff"/><text x="856.5" y="183" font-family="Inter,Segoe UI,Arial" font-size="12" text-anchor="middle" font-weight="700" fill="#1f2937">1,54</text><rect x="918" y="152" width="113" height="49" rx="8" fill="rgb(238,246,253)" stroke="#ffffff"/><text x="974.5" y="183" font-family="Inter,Segoe UI,Arial" font-size="12" text-anchor="middle" font-weight="700" fill="#1f2937">1,38</text><text x="196" y="237" font-family="Inter,Segoe UI,Arial" font-size="12" text-anchor="end" fill="#1f2937">qwen3.6-27b</text><rect x="210" y="206" width="113" height="49" rx="8" fill="rgb(233,245,245)" stroke="#ffffff"/><text x="266.5" y="237" font-family="Inter,Segoe UI,Arial" font-size="12" text-anchor="middle" font-weight="700" fill="#1f2937">1,58</text><rect x="328" y="206" width="113" height="49" rx="8" fill="rgb(234,245,247)" stroke="#ffffff"/><text x="384.5" y="237" font-family="Inter,Segoe UI,Arial" font-size="12" text-anchor="middle" font-weight="700" fill="#1f2937">1,54</text><rect x="446" y="206" width="113" height="49" rx="8" fill="#f8fafc" stroke="#ffffff"/><text x="502.5" y="237" font-family="Inter,Segoe UI,Arial" font-size="12" text-anchor="middle" font-weight="700" fill="#1f2937">-</text><rect x="564" y="206" width="113" height="49" rx="8" fill="rgb(224,243,232)" stroke="#ffffff"/><text x="620.5" y="237" font-family="Inter,Segoe UI,Arial" font-size="12" text-anchor="middle" font-weight="700" fill="#1f2937">1,91</text><rect x="682" y="206" width="113" height="49" rx="8" fill="rgb(231,245,243)" stroke="#ffffff"/><text x="738.5" y="237" font-family="Inter,Segoe UI,Arial" font-size="12" text-anchor="middle" font-weight="700" fill="#1f2937">1,65</text><rect x="800" y="206" width="113" height="49" rx="8" fill="#f8fafc" stroke="#ffffff"/><text x="856.5" y="237" font-family="Inter,Segoe UI,Arial" font-size="12" text-anchor="middle" font-weight="700" fill="#1f2937">-</text><rect x="918" y="206" width="113" height="49" rx="8" fill="rgb(238,246,253)" stroke="#ffffff"/><text x="974.5" y="237" font-family="Inter,Segoe UI,Arial" font-size="12" text-anchor="middle" font-weight="700" fill="#1f2937">1,38</text><text x="36" y="294" font-family="Inter,Segoe UI,Arial" font-size="11" fill="#64748b">Bajo</text><rect x="70" y="282" width="1" height="14" fill="rgb(239,246,255)"/><rect x="71" y="282" width="1" height="14" fill="rgb(239,246,254)"/><rect x="72" y="282" width="1" height="14" fill="rgb(238,246,254)"/><rect x="73" y="282" width="1" height="14" fill="rgb(238,246,253)"/><rect x="74" y="282" width="1" height="14" fill="rgb(237,246,252)"/><rect x="75" y="282" width="1" height="14" fill="rgb(237,246,252)"/><rect x="76" y="282" width="1" height="14" fill="rgb(236,246,251)"/><rect x="77" y="282" width="1" height="14" fill="rgb(236,245,250)"/><rect x="78" y="282" width="1" height="14" fill="rgb(235,245,250)"/><rect x="79" y="282" width="1" height="14" fill="rgb(235,245,249)"/><rect x="80" y="282" width="1" height="14" fill="rgb(234,245,248)"/><rect x="81" y="282" width="1" height="14" fill="rgb(234,245,248)"/><rect x="82" y="282" width="1" height="14" fill="rgb(234,245,247)"/><rect x="83" y="282" width="1" height="14" fill="rgb(233,245,246)"/><rect x="84" y="282" width="1" height="14" fill="rgb(233,245,245)"/><rect x="85" y="282" width="1" height="14" fill="rgb(232,245,245)"/><rect x="86" y="282" width="1" height="14" fill="rgb(232,245,244)"/><rect x="87" y="282" width="1" height="14" fill="rgb(231,245,243)"/><rect x="88" y="282" width="1" height="14" fill="rgb(231,245,243)"/><rect x="89" y="282" width="1" height="14" fill="rgb(230,245,242)"/><rect x="90" y="282" width="1" height="14" fill="rgb(230,244,241)"/><rect x="91" y="282" width="1" height="14" fill="rgb(229,244,241)"/><rect x="92" y="282" width="1" height="14" fill="rgb(229,244,240)"/><rect x="93" y="282" width="1" height="14" fill="rgb(229,244,239)"/><rect x="94" y="282" width="1" height="14" fill="rgb(228,244,239)"/><rect x="95" y="282" width="1" height="14" fill="rgb(228,244,238)"/><rect x="96" y="282" width="1" height="14" fill="rgb(227,244,237)"/><rect x="97" y="282" width="1" height="14" fill="rgb(227,244,237)"/><rect x="98" y="282" width="1" height="14" fill="rgb(226,244,236)"/><rect x="99" y="282" width="1" height="14" fill="rgb(226,244,235)"/><rect x="100" y="282" width="1" height="14" fill="rgb(225,244,235)"/><rect x="101" y="282" width="1" height="14" fill="rgb(225,244,234)"/><rect x="102" y="282" width="1" height="14" fill="rgb(224,244,233)"/><rect x="103" y="282" width="1" height="14" fill="rgb(224,244,233)"/><rect x="104" y="282" width="1" height="14" fill="rgb(224,243,232)"/><rect x="105" y="282" width="1" height="14" fill="rgb(223,243,231)"/><rect x="106" y="282" width="1" height="14" fill="rgb(223,243,230)"/><rect x="107" y="282" width="1" height="14" fill="rgb(222,243,230)"/><rect x="108" y="282" width="1" height="14" fill="rgb(222,243,229)"/><rect x="109" y="282" width="1" height="14" fill="rgb(221,243,228)"/><rect x="110" y="282" width="1" height="14" fill="rgb(221,243,228)"/><rect x="111" y="282" width="1" height="14" fill="rgb(222,243,227)"/><rect x="112" y="282" width="1" height="14" fill="rgb(223,243,227)"/><rect x="113" y="282" width="1" height="14" fill="rgb(224,242,227)"/><rect x="114" y="282" width="1" height="14" fill="rgb(225,242,226)"/><rect x="115" y="282" width="1" height="14" fill="rgb(226,242,226)"/><rect x="116" y="282" width="1" height="14" fill="rgb(226,242,226)"/><rect x="117" y="282" width="1" height="14" fill="rgb(227,242,225)"/><rect x="118" y="282" width="1" height="14" fill="rgb(228,242,225)"/><rect x="119" y="282" width="1" height="14" fill="rgb(229,242,224)"/><rect x="120" y="282" width="1" height="14" fill="rgb(230,241,224)"/><rect x="121" y="282" width="1" height="14" fill="rgb(231,241,224)"/><rect x="122" y="282" width="1" height="14" fill="rgb(232,241,223)"/><rect x="123" y="282" width="1" height="14" fill="rgb(232,241,223)"/><rect x="124" y="282" width="1" height="14" fill="rgb(233,241,223)"/><rect x="125" y="282" width="1" height="14" fill="rgb(234,241,222)"/><rect x="126" y="282" width="1" height="14" fill="rgb(235,241,222)"/><rect x="127" y="282" width="1" height="14" fill="rgb(236,240,221)"/><rect x="128" y="282" width="1" height="14" fill="rgb(237,240,221)"/><rect x="129" y="282" width="1" height="14" fill="rgb(238,240,221)"/><rect x="130" y="282" width="1" height="14" fill="rgb(238,240,220)"/><rect x="131" y="282" width="1" height="14" fill="rgb(239,240,220)"/><rect x="132" y="282" width="1" height="14" fill="rgb(240,240,220)"/><rect x="133" y="282" width="1" height="14" fill="rgb(241,239,219)"/><rect x="134" y="282" width="1" height="14" fill="rgb(242,239,219)"/><rect x="135" y="282" width="1" height="14" fill="rgb(243,239,218)"/><rect x="136" y="282" width="1" height="14" fill="rgb(244,239,218)"/><rect x="137" y="282" width="1" height="14" fill="rgb(244,239,218)"/><rect x="138" y="282" width="1" height="14" fill="rgb(245,239,217)"/><rect x="139" y="282" width="1" height="14" fill="rgb(246,239,217)"/><rect x="140" y="282" width="1" height="14" fill="rgb(247,238,217)"/><rect x="141" y="282" width="1" height="14" fill="rgb(248,238,216)"/><rect x="142" y="282" width="1" height="14" fill="rgb(249,238,216)"/><rect x="143" y="282" width="1" height="14" fill="rgb(250,238,215)"/><rect x="144" y="282" width="1" height="14" fill="rgb(250,238,215)"/><rect x="145" y="282" width="1" height="14" fill="rgb(251,238,215)"/><rect x="146" y="282" width="1" height="14" fill="rgb(252,238,214)"/><rect x="147" y="282" width="1" height="14" fill="rgb(253,237,214)"/><rect x="148" y="282" width="1" height="14" fill="rgb(254,237,214)"/><rect x="149" y="282" width="1" height="14" fill="rgb(255,237,213)"/><rect x="150" y="282" width="1" height="14" fill="rgb(255,236,213)"/><rect x="151" y="282" width="1" height="14" fill="rgb(255,235,212)"/><rect x="152" y="282" width="1" height="14" fill="rgb(255,234,211)"/><rect x="153" y="282" width="1" height="14" fill="rgb(255,232,211)"/><rect x="154" y="282" width="1" height="14" fill="rgb(255,231,210)"/><rect x="155" y="282" width="1" height="14" fill="rgb(255,230,209)"/><rect x="156" y="282" width="1" height="14" fill="rgb(255,228,208)"/><rect x="157" y="282" width="1" height="14" fill="rgb(255,227,208)"/><rect x="158" y="282" width="1" height="14" fill="rgb(255,226,207)"/><rect x="159" y="282" width="1" height="14" fill="rgb(255,225,206)"/><rect x="160" y="282" width="1" height="14" fill="rgb(254,223,206)"/><rect x="161" y="282" width="1" height="14" fill="rgb(254,222,205)"/><rect x="162" y="282" width="1" height="14" fill="rgb(254,221,204)"/><rect x="163" y="282" width="1" height="14" fill="rgb(254,219,204)"/><rect x="164" y="282" width="1" height="14" fill="rgb(254,218,203)"/><rect x="165" y="282" width="1" height="14" fill="rgb(254,217,202)"/><rect x="166" y="282" width="1" height="14" fill="rgb(254,216,202)"/><rect x="167" y="282" width="1" height="14" fill="rgb(254,214,201)"/><rect x="168" y="282" width="1" height="14" fill="rgb(254,213,200)"/><rect x="169" y="282" width="1" height="14" fill="rgb(254,212,200)"/><rect x="170" y="282" width="1" height="14" fill="rgb(254,210,199)"/><rect x="171" y="282" width="1" height="14" fill="rgb(254,209,198)"/><rect x="172" y="282" width="1" height="14" fill="rgb(254,208,198)"/><rect x="173" y="282" width="1" height="14" fill="rgb(254,207,197)"/><rect x="174" y="282" width="1" height="14" fill="rgb(254,205,196)"/><rect x="175" y="282" width="1" height="14" fill="rgb(254,204,196)"/><rect x="176" y="282" width="1" height="14" fill="rgb(254,203,195)"/><rect x="177" y="282" width="1" height="14" fill="rgb(254,201,194)"/><rect x="178" y="282" width="1" height="14" fill="rgb(254,200,193)"/><rect x="179" y="282" width="1" height="14" fill="rgb(254,199,193)"/><rect x="180" y="282" width="1" height="14" fill="rgb(253,198,192)"/><rect x="181" y="282" width="1" height="14" fill="rgb(253,196,191)"/><rect x="182" y="282" width="1" height="14" fill="rgb(253,195,191)"/><rect x="183" y="282" width="1" height="14" fill="rgb(253,194,190)"/><rect x="184" y="282" width="1" height="14" fill="rgb(253,192,189)"/><rect x="185" y="282" width="1" height="14" fill="rgb(253,191,189)"/><rect x="186" y="282" width="1" height="14" fill="rgb(253,190,188)"/><rect x="187" y="282" width="1" height="14" fill="rgb(253,189,187)"/><rect x="188" y="282" width="1" height="14" fill="rgb(253,187,187)"/><rect x="189" y="282" width="1" height="14" fill="rgb(253,186,186)"/><text x="200" y="294" font-family="Inter,Segoe UI,Arial" font-size="11" fill="#64748b">Alto</text></svg>